<?xml version="1.0"?>
<svg version="1.1" xmlns="http://www.w3.org/2000/svg" width="400" height="200" style="border: dashed 2px #aaa"><path fill="#f2f2f2" d="M60.714,129.241c0.057,0.969-0.228,1.539-1.311,1.539l-4.617,0c-1.197,0-1.425-0.57-1.482-1.881l-0.798-23.142l-0.114,0l-9.69,23.997c-0.342,0.912-0.912,1.026-1.539,1.026l-1.995,0c-0.855,0-1.368-0.171-1.767-1.083l-10.773-23.94l-0.114,0l-0.513,23.598c0,1.254-0.513,1.425-1.539,1.425l-3.876,0c-1.083,0-1.539-0.399-1.482-1.482l1.425-36.423c0.057-1.197,0.456-1.539,1.368-1.539l3.363,0c1.14,0,1.539,0.399,1.938,1.254l13.167,28.158l0.114,0l12.027-28.158c0.342-0.855,0.798-1.254,1.824-1.254l3.363,0c0.912,0,1.254,0.342,1.311,1.254z M98.5905,129.697c0,0.684-0.456,1.083-1.14,1.083l-2.736,0c-2.964,0-4.275-1.425-4.674-3.363l-0.114,0c-1.425,2.109-5.13,4.047-8.265,4.047c-8.037,0-11.685-6.612-11.685-14.022c0-9.861,5.928-15.048,12.312-15.048c3.021,0,5.871,1.368,7.296,3.306l0.114-1.539c0.057-0.627,0.513-1.026,1.197-1.026l3.99,0c0.741,0,1.197,0.399,1.197,1.254l0,19.779c0,0.798,0.114,1.368,0.342,1.653c0.171,0.171,0.399,0.228,0.684,0.228l0.456,0c0.684,0,1.026,0.228,1.026,0.969l0,2.679z M89.1855,121.945l0-11.001c-1.14-1.653-3.477-2.907-5.643-2.907c-3.477,0-6.441,2.964-6.441,8.949c0,4.788,1.824,8.835,6.042,8.835c2.793,0,5.187-2.109,6.042-3.876z M124.155,129.07c0,0.57-0.285,0.855-0.855,1.083c-1.767,0.741-4.104,1.311-6.384,1.311c-2.907,0-5.415-0.741-6.84-2.394c-1.767-1.995-1.824-4.332-1.824-8.493l0-12.711l-2.679,0c-1.083,0-1.254-0.228-1.254-1.425l0-2.166c0-0.684,0.342-1.14,1.026-1.14l2.907,0l0-6.213c0-0.969,0.513-1.254,1.425-1.368l4.104-0.513l0.285,0c0.741,0,1.083,0.399,1.083,1.254l0,6.84l6.441,0c0.684,0,1.083,0.228,1.083,0.969l0,2.679c0,0.684-0.456,1.083-1.14,1.083l-6.384,0l0,13.053c0,1.71,0.114,2.964,0.741,3.876c0.513,0.741,1.311,1.197,2.679,1.197c1.425,0,2.622-0.342,3.648-0.684c0.228-0.057,0.399-0.114,0.57-0.114c0.399,0,0.627,0.228,0.741,0.684l0.57,2.85c0.057,0.171,0.057,0.228,0.057,0.342z M149.2065,129.07c0,0.57-0.285,0.855-0.855,1.083c-1.767,0.741-4.104,1.311-6.384,1.311c-2.907,0-5.415-0.741-6.84-2.394c-1.767-1.995-1.824-4.332-1.824-8.493l0-12.711l-2.679,0c-1.083,0-1.254-0.228-1.254-1.425l0-2.166c0-0.684,0.342-1.14,1.026-1.14l2.907,0l0-6.213c0-0.969,0.513-1.254,1.425-1.368l4.104-0.513l0.285,0c0.741,0,1.083,0.399,1.083,1.254l0,6.84l6.441,0c0.684,0,1.083,0.228,1.083,0.969l0,2.679c0,0.684-0.456,1.083-1.14,1.083l-6.384,0l0,13.053c0,1.71,0.114,2.964,0.741,3.876c0.513,0.741,1.311,1.197,2.679,1.197c1.425,0,2.622-0.342,3.648-0.684c0.228-0.057,0.399-0.114,0.57-0.114c0.399,0,0.627,0.228,0.741,0.684l0.57,2.85c0.057,0.171,0.057,0.228,0.057,0.342z M181.611,92.305l0,0.342l-0.399,3.42c-0.114,1.026-0.741,1.197-1.938,1.197l-14.307,0l0,10.317l13.167,0c1.083,0,1.425,0.456,1.425,1.254l0,3.249c0,0.969-0.399,1.368-1.368,1.368l-13.224,0l0,15.903c0,1.026-0.399,1.425-1.368,1.425l-4.446,0c-1.14,0-1.539-0.285-1.539-1.539l0-36.48c0-0.912,0.399-1.425,1.311-1.425l21.489,0c0.855,0,1.197,0.285,1.197,0.969z M197.6565,129.355c0,0.969-0.456,1.425-1.254,1.425l-4.332,0c-0.798,0-1.311-0.399-1.311-1.368l0-37.392c0-0.969,0.399-1.254,1.14-1.368l4.104-0.57c0.114,0,0.285-0.057,0.399-0.057c0.684,0,1.254,0.342,1.254,1.254l0,38.076z M215.925,95.896c0,2.223-1.938,3.591-3.819,3.591s-3.876-1.254-3.876-3.534s1.881-3.648,3.876-3.648c1.938,0,3.819,1.311,3.819,3.591z M215.583,129.355c0,1.026-0.456,1.425-1.425,1.425l-3.99,0c-1.026,0-1.482-0.399-1.482-1.425l0-24.909c0-0.969,0.57-1.311,1.482-1.311l3.99,0c0.912,0,1.425,0.285,1.425,1.311l0,24.909z M250.8945,130.039c0,0.399-0.342,0.741-0.969,0.741l-5.7,0c-1.14,0-1.596-0.342-1.995-1.026l-5.358-8.721l-0.057,0l-5.472,8.607c-0.513,0.798-1.083,1.14-2.166,1.14l-4.959,0c-0.456,0-0.627-0.285-0.627-0.684c0-0.228,0.114-0.513,0.285-0.741l9.69-12.882l-8.436-12.084c-0.114-0.171-0.171-0.342-0.171-0.513c0-0.399,0.285-0.741,0.798-0.741l5.814,0c0.855,0,1.425,0.342,1.767,0.912l4.503,7.182l0.057,0l4.674-7.125c0.456-0.684,0.912-0.969,1.653-0.969l5.073,0c0.513,0,0.741,0.285,0.741,0.627c0,0.228-0.057,0.399-0.228,0.57l-8.721,11.343l9.519,13.566c0.171,0.285,0.285,0.57,0.285,0.798z"/><path fill="#" d=""/></svg>
